<?xml version="1.0" encoding="utf-8"?>
<!-- Generator: Adobe Illustrator 21.0.0, SVG Export Plug-In . SVG Version: 6.00 Build 0)  -->
<svg version="1.1" id="Layer_1" xmlns="http://www.w3.org/2000/svg" xmlns:xlink="http://www.w3.org/1999/xlink" x="0px" y="0px"
	 viewBox="0 0 600 600" style="enable-background:new 0 0 600 600;" xml:space="preserve">
<style type="text/css">
	.st0{opacity:0.21;}
	.st1{fill:none;stroke:#BDC0BB;stroke-width:8;stroke-miterlimit:10;}
</style>
<g class="st0">
	<path class="st1" d="M300,159.8c-77.3,0-140.2,62.9-140.2,140.2c0,77.3,62.9,140.2,140.2,140.2c77.3,0,140.2-62.9,140.2-140.2
		C440.2,222.7,377.3,159.8,300,159.8z M305.2,325.9v65.5c0,4.9-4,9-8.9,8.9c-4.9-0.1-9.3-3.3-9.3-8.2v-66.4l-26.1,33
		c-1.5,1.9-3.7,3.1-6.1,3.4c-2.4,0.3-4.8-0.4-6.7-1.9c-3.9-3.1-4.6-8.8-1.5-12.7l28.9-36.5c-1.7-3.6-2.6-7.6-2.6-11.7
		c0-4.8,1.3-9.5,3.7-13.6l-62.5-57.3c-3.7-3.4-2.2-8.6,1.2-12.2c3.4-3.7,7.9-4.8,11.6-1.4l63.7,59.2c3-1.1,6.3-1.7,9.5-1.7
		c15,0,27.2,12.2,27.2,27.2C327.2,312.5,317.7,323.5,305.2,325.9z"/>
	<path class="st1" d="M599.7,14.7c0.5-1.2,0.3-2.5-0.5-3.4L598,10l0,0l-0.1-0.1l0,0l0,0l-0.6-0.6c-0.9-0.9-2.3-1.2-3.5-0.7
		L308.9,136.1c-1,0.5-2.2,0.3-3.1-0.3l-94.6-68.4c-0.9-0.7-2.2-0.8-3.2-0.3l-83.8,40.7c-1.2,0.6-1.9,1.8-1.8,3.1L136.1,288
		c0,0.5-0.1,1.1-0.3,1.6L0.3,585.3c-0.5,1.2-0.3,2.5,0.5,3.4L2,590l0,0l0.1,0.1l0,0l0,0l0.6,0.6c0.9,0.9,2.3,1.2,3.5,0.7
		l284.9-127.5c1-0.5,2.2-0.3,3.1,0.3l94.6,68.4c0.9,0.7,2.2,0.8,3.2,0.3l83.8-40.7c1.2-0.6,1.9-1.8,1.8-3.1L463.9,312
		c0-0.5,0.1-1.1,0.3-1.6L599.7,14.7z M300,457.6c-87.7,0-159-71.3-159-159c0-87.7,71.3-159,159-159s159,71.3,159,159
		C459,386.2,387.7,457.6,300,457.6z"/>
</g>
</svg>
