<?xml version="1.0" encoding="utf-8"?>
<!-- Generator: Adobe Illustrator 21.0.0, SVG Export Plug-In . SVG Version: 6.00 Build 0)  -->
<svg version="1.1" id="Layer_1" xmlns="http://www.w3.org/2000/svg" xmlns:xlink="http://www.w3.org/1999/xlink" x="0px" y="0px"
	 viewBox="0 0 122.4 577.6" style="enable-background:new 0 0 122.4 577.6;" xml:space="preserve">
<style type="text/css">
	.st0{fill:none;stroke:#960609;stroke-width:3;}
</style>
<g>
	<path class="st0" d="M3.8,474.5l118.6,48.9L3.8,572v-38.6l35-10.3l-35-11.3V474.5z"/>
	<path class="st0" d="M3.8,433.8H116v33.4H3.8V433.8z"/>
	<path class="st0" d="M47.4,351.5h25v21.8c0,3,0.4,5.1,1.3,6.3c0.9,1.2,2.4,1.8,4.4,1.8c2.4,0,3.9-0.6,4.6-1.9
		c0.7-1.3,1.1-3.8,1.1-7.7v-22.4H116v26.2c0,12.3-2.9,21.8-8.8,28.3c-5.9,6.5-14.4,9.8-25.5,9.8h-44c-10.7,0-19.1-3.1-25-9.2
		s-8.9-14.8-8.9-26v-29H36v21.3c0,5.8,1.9,8.6,5.6,8.6c2.2,0,3.7-0.7,4.6-2.1c0.8-1.4,1.3-3.8,1.3-7.3V351.5z"/>
	<path class="st0" d="M3.8,213.7h80.8c10.1,0,18.3,3,24.7,9.1c6.4,6.1,9.5,13.9,9.5,23.6c0,11.6-5.3,20.5-15.9,26.6
		c5.7,3.8,9.8,7.8,12.2,12.2c2.4,4.3,3.7,9.7,3.7,16c0,10.1-3.2,17.8-9.5,23.2c-6.4,5.4-15.5,8.1-27.5,8.1h-78v-33.4h73
		c3.6,0,6-0.3,7.2-0.9c1.2-0.6,1.7-1.7,1.7-3.5c0-3.3-2.8-4.9-8.3-4.9H3.8v-33.4h73c3.5,0,5.9-0.3,7.1-0.9c1.2-0.6,1.8-1.8,1.8-3.5
		c0-3.3-3-4.9-8.9-4.9h-73V213.7z"/>
	<path class="st0" d="M47.4,133.6h25v21.8c0,3,0.4,5.1,1.3,6.3c0.9,1.2,2.4,1.8,4.4,1.8c2.4,0,3.9-0.6,4.6-1.9
		c0.7-1.3,1.1-3.8,1.1-7.7v-22.4H116v26.2c0,12.3-2.9,21.8-8.8,28.3c-5.9,6.5-14.4,9.8-25.5,9.8h-44c-10.7,0-19.1-3.1-25-9.2
		c-5.9-6.2-8.9-14.8-8.9-26v-29H36v21.3c0,5.8,1.9,8.6,5.6,8.6c2.2,0,3.7-0.7,4.6-2.1c0.8-1.4,1.3-3.8,1.3-7.3V133.6z"/>
	<path class="st0" d="M36,78.9h80v33.4H3.8V68.8c0-19.1,4.3-34,13-44.8C27.1,11.2,41.2,4.8,59,4.8c17,0,30.9,5.5,41.6,16.4
		c10.7,11,16.1,25.1,16.1,42.3c0,2-0.1,5.3-0.3,9.9h-33v-5.3C83.4,48.7,75.2,39,59,39C43.7,39,36,48.5,36,67.7V78.9z"/>
</g>
</svg>
