<svg id="Layer_1" data-name="Layer 1" xmlns="http://www.w3.org/2000/svg" viewBox="0 0 767.47 767.47"><title>icon_new_logo_icon</title><circle cx="383.73" cy="383.73" r="383.73" style="fill:#b32527"/><path d="M541.58,432.95A107.36,107.36,0,1,0,648.94,540.31,107.48,107.48,0,0,0,541.58,432.95Zm3.68,127.33v50.56a6.74,6.74,0,0,1-6.54,6.82c-3.89,0-7.46-2.4-7.46-6.29V560.13L511.2,585.49a7,7,0,1,1-11.06-8.58l22.28-28.18a20.9,20.9,0,0,1,.8-19.53L475,485c-2.83-2.63-1.72-6.62.9-9.44s6.12-3.71,8.95-1.09L534,520.09a20.94,20.94,0,1,1,11.27,40.19Z" transform="translate(-157.17 -156.95)" style="fill:#bdc0bb"/><path d="M771.09,321.82a2.42,2.42,0,0,0-.41-2.64l-.88-1h0l-.06-.06h0l-.47-.49a2.42,2.42,0,0,0-2.71-.52L548.36,414.8a2.42,2.42,0,0,1-2.4-.25l-72.42-52.37a2.42,2.42,0,0,0-2.47-.22L406.9,393.11a2.42,2.42,0,0,0-1.35,2.36l10.52,135.67a2.42,2.42,0,0,1-.21,1.19L312.07,758.81a2.42,2.42,0,0,0,.41,2.64l.88,1h0l.06.06h0l.48.49a2.42,2.42,0,0,0,2.71.52L534.8,665.82a2.42,2.42,0,0,1,2.4.25l72.42,52.37a2.42,2.42,0,0,0,2.47.22l64.17-31.14a2.42,2.42,0,0,0,1.35-2.36L667.1,549.48a2.42,2.42,0,0,1,.21-1.19ZM541.58,661A121.79,121.79,0,1,1,663.38,539.19,121.93,121.93,0,0,1,541.58,661Z" transform="translate(-157.17 -156.95)" style="fill:#bdc0bb"/></svg>