<svg id="Layer_1" data-name="Layer 1" xmlns="http://www.w3.org/2000/svg" viewBox="0 0 323.54 333.03"><title>icon_new_logo</title><path d="M202,271c1.07-3.9,2.72-7.79,3.87-11.32,2.16-6.65,4.2-13.42,4.53-20.45.74-15.27-6.26-30.48-12.89-43.87-7-14.21-15.53-27.64-24-41-2.71-4.29-5.41-8.57-8.08-12.89-11.12-18-23.7-37.94-22.61-60,.52-10.56,4.21-21.58,13.49-27.57,8.33-5.38,19.17-5.77,28.7-4.41A100.16,100.16,0,0,1,215.59,59a110.25,110.25,0,0,1,15.13,9.14A123.2,123.2,0,0,1,260.48,98.7a120.23,120.23,0,0,1,20.75,63.39c.26,7.42.46,14.8-.72,22.18-1.45,9.05-4.28-1.06-5.1-5a274.57,274.57,0,0,0-8-31.78c-1.31-3.93-2.77-7.82-4.41-11.63a98.53,98.53,0,0,0-15.22-24.89c-4.33-5.07-15.58-18.17-23.28-16.5-2.14.46-3.58,2.48-4.42,4.5-7.17,17.42,5.82,40.22,13.46,55.27,6.59,13,13.76,25.79,18,39.71,4.66,15.35,8.15,32.7,1.21,47.38-3.1,6.55-8.18,11.68-13.55,16.42A106.79,106.79,0,0,1,222,270.07c-3.28,1.9-6.67,3.59-10.12,5.17-1.33.61-2.64,1.24-4,1.81a29.41,29.41,0,0,1-4.16,1.46q-.55.14-1.11.25l-.56.1a3.65,3.65,0,0,1-.55.08.52.52,0,0,1-.35-.12.51.51,0,0,1-.13-.21,3.23,3.23,0,0,1-.05-1q0-.57.05-1.13c.06-.77.16-1.53.29-2.29C201.5,273.09,201.74,272.06,202,271Z" style="fill:#ed1c24"/><path d="M121.52,62c-1.07,3.9-2.72,7.79-3.87,11.32-2.16,6.65-4.2,13.42-4.53,20.45-.74,15.27,6.26,30.48,12.89,43.87,7,14.21,15.53,27.64,24,41,2.71,4.29,5.41,8.57,8.08,12.89,11.12,18,23.7,37.94,22.61,60-.52,10.56-4.21,21.58-13.49,27.57-8.33,5.38-19.17,5.77-28.7,4.41A100.16,100.16,0,0,1,107.95,274a110.25,110.25,0,0,1-15.13-9.14,123.2,123.2,0,0,1-29.76-30.58,120.23,120.23,0,0,1-20.75-63.39c-.26-7.42-.46-14.8.72-22.18,1.45-9.05,4.28,1.06,5.1,5a274.57,274.57,0,0,0,8,31.78c1.31,3.93,2.77,7.82,4.41,11.63a98.53,98.53,0,0,0,15.22,24.89c4.33,5.07,15.58,18.17,23.28,16.5,2.14-.46,3.58-2.48,4.42-4.5,7.17-17.42-5.82-40.22-13.46-55.27-6.59-13-13.76-25.79-18-39.71-4.66-15.35-8.15-32.7-1.21-47.38C73.93,85.18,79,80,84.38,75.31A106.79,106.79,0,0,1,101.55,63c3.28-1.9,6.67-3.59,10.12-5.17,1.33-.61,2.64-1.24,4-1.81a29.41,29.41,0,0,1,4.16-1.46q.55-.14,1.11-.25l.56-.1a3.65,3.65,0,0,1,.55-.08.52.52,0,0,1,.35.12.51.51,0,0,1,.13.21,3.23,3.23,0,0,1,.05,1q0,.57-.05,1.13c-.06.77-.16,1.53-.29,2.29C122,59.94,121.8,61,121.52,62Z" style="fill:#231f20"/></svg>