<svg id="Layer_1" data-name="Layer 1" xmlns="http://www.w3.org/2000/svg" viewBox="0 0 370.92 84.08"><title>powered_by_stripe</title><rect id="SVGID" width="370.92" height="84.08" style="fill:none"/><path d="M482.7,424.64H130.89a9.22,9.22,0,0,0-9.22,9.22V499.5a9.22,9.22,0,0,0,9.22,9.22H482.7a9.89,9.89,0,0,0,9.89-9.89V434.54a9.89,9.89,0,0,0-9.89-9.89Zm7.42,74.18a7.42,7.42,0,0,1-7.42,7.42H130.89a6.78,6.78,0,0,1-6.75-6.75V433.87a6.78,6.78,0,0,1,6.75-6.75H482.7a7.42,7.42,0,0,1,7.42,7.42Z" transform="translate(-121.67 -424.64)" style="fill:#0a2540"/><path d="M163.88,452.44H153.24V479H158V468.76h5.89c5.93,0,9.64-2.87,9.64-8.16S169.81,452.44,163.88,452.44Zm-.25,12.36H158v-8.16h5.71c3.41,0,5.22,1.46,5.22,4.08s-1.88,4-5.22,4Z" transform="translate(-121.67 -424.64)" style="fill:#0a2540"/><path d="M183.73,459.26a9.32,9.32,0,0,0-9.4,10.11,9.42,9.42,0,1,0,18.77,0,9.3,9.3,0,0,0-9.37-10.11Zm0,16.49c-3,0-4.95-2.47-4.95-6.38s1.88-6.38,4.95-6.38,4.95,2.47,4.95,6.38-2,6.36-4.95,6.36Z" transform="translate(-121.67 -424.64)" style="fill:#0a2540"/><path d="M212.62,472.49l-3.49-12.91h-3.66L202,472.49l-3.51-12.91h-4.57l5.86,19.49h3.86l3.56-12.76,3.56,12.76h3.86l5.86-19.49h-4.4Z" transform="translate(-121.67 -424.64)" style="fill:#0a2540"/><path d="M230.47,459.26a9.47,9.47,0,0,0-9.27,10.11,9.37,9.37,0,0,0,9.47,10.11,8.58,8.58,0,0,0,8.43-5.39l-3.68-1.53a4.4,4.4,0,0,1-4.53,3.12,5.24,5.24,0,0,1-5.37-5.37h13.65v-1.48C239.22,463.49,236.21,459.26,230.47,459.26ZM225.7,467a4.75,4.75,0,0,1,4.77-4,3.86,3.86,0,0,1,4.18,4Z" transform="translate(-121.67 -424.64)" style="fill:#0a2540"/><path d="M247,462.48v-2.89h-4.45V479H247V468.83a4.67,4.67,0,0,1,4.95-4.95,11.52,11.52,0,0,1,1.63,0v-4.45h-1.26a5.66,5.66,0,0,0-5.32,3Z" transform="translate(-121.67 -424.64)" style="fill:#0a2540"/><path d="M263.8,459.26a9.47,9.47,0,0,0-9.27,10.11A9.37,9.37,0,0,0,264,479.49a8.58,8.58,0,0,0,8.33-5.39l-3.81-1.46a4.4,4.4,0,0,1-4.53,3.12,5.24,5.24,0,0,1-5.19-5.37h13.7v-1.48C272.51,463.49,269.44,459.26,263.8,459.26ZM259,467a4.75,4.75,0,0,1,4.75-4,3.86,3.86,0,0,1,4.18,4Z" transform="translate(-121.67 -424.64)" style="fill:#0a2540"/><path d="M288.73,461.74a7,7,0,0,0-5.59-2.47c-5.46,0-8.58,4.57-8.58,10.11s3.12,10.11,8.58,10.11a7,7,0,0,0,5.59-2.47v2h4.45V452.44h-4.45Zm0,8.28a4.95,4.95,0,0,1-4.95,5.64c-3.24,0-4.95-2.47-4.95-6.23s1.73-6.23,4.95-6.23c2.74,0,4.95,2,4.95,5.66Z" transform="translate(-121.67 -424.64)" style="fill:#0a2540"/><path d="M317.79,459.26a7.12,7.12,0,0,0-5.71,2.47v-9.3h-4.45V479h4.45V477a7.07,7.07,0,0,0,5.61,2.47c5.44,0,8.56-4.6,8.56-10.11S323.23,459.26,317.79,459.26ZM317,475.58a4.95,4.95,0,0,1-4.95-5.64v-1.16c0-3.66,2.08-5.66,4.95-5.66,3.21,0,4.95,2.47,4.95,6.23S320.11,475.58,317,475.58Z" transform="translate(-121.67 -424.64)" style="fill:#0a2540"/><path d="M336.63,473.26l-4.77-13.67h-4.7l7.17,18.77-.74,1.83a2.47,2.47,0,0,1-2.82,2,10.18,10.18,0,0,1-1.48,0v3.73a11.45,11.45,0,0,0,1.81.12A6.6,6.6,0,0,0,338,481l8-21.32H341.3Z" transform="translate(-121.67 -424.64)" style="fill:#0a2540"/><path d="M430.77,455.38a7.42,7.42,0,0,0-5.27,2.15l-.35-1.71h-5.91v31.95l6.73-1.46v-7.74a7.42,7.42,0,0,0,4.77,1.73c4.8,0,9.2-3.93,9.2-12.64C439.94,459.71,435.49,455.38,430.77,455.38Zm-1.61,18.87A4,4,0,0,1,426,473V462.8a4.06,4.06,0,0,1,3.21-1.36c2.47,0,4.15,2.79,4.15,6.38S431.66,474.25,429.16,474.25Z" transform="translate(-121.67 -424.64)" style="fill:#0a2540"/><path d="M452.36,455.38c-6.48,0-10.41,5.59-10.41,12.64,0,8.33,4.65,12.56,11.28,12.56a15.13,15.13,0,0,0,7.42-1.81v-5.56a14.32,14.32,0,0,1-6.68,1.53c-2.67,0-4.95-1-5.29-4.2H462v-2.47C462.2,461,458.84,455.38,452.36,455.38Zm-3.64,10.06c0-3.12,1.9-4.43,3.59-4.43s3.46,1.31,3.46,4.43Z" transform="translate(-121.67 -424.64)" style="fill:#0a2540"/><path d="M401.1,457.68l-.42-2h-5.74v24h6.63V463.39a4.62,4.62,0,0,1,5.07-1.43v-6.31a4.45,4.45,0,0,0-5.54,2Z" transform="translate(-121.67 -424.64)" style="fill:#0a2540"/><path d="M367.61,462.87c0-1.09.89-1.51,2.3-1.51a14.58,14.58,0,0,1,6.68,1.78v-6.5a17.32,17.32,0,0,0-6.68-1.26c-5.46,0-9.1,2.92-9.1,7.81,0,7.67,10.24,6.43,10.24,9.72,0,1.29-1.09,1.71-2.47,1.71a16.76,16.76,0,0,1-7.42-2.23V479a18.25,18.25,0,0,0,7.42,1.58c5.59,0,9.45-2.84,9.45-7.81C377.9,464.51,367.61,466,367.61,462.87Z" transform="translate(-121.67 -424.64)" style="fill:#0a2540"/><path d="M387,450l-6.55,1.43v22.08a6.85,6.85,0,0,0,7,7.1,10.29,10.29,0,0,0,4.72-.91V474.1c-.87.37-5.09,1.63-5.09-2.47v-9.89h5.09V456H387Z" transform="translate(-121.67 -424.64)" style="fill:#0a2540"/><path d="M409.13,453.58l6.75-1.41v-5.34l-6.75,1.41Z" transform="translate(-121.67 -424.64)" style="fill:#0a2540"/><path d="M415.88,455.83h-6.75v23.84h6.75Z" transform="translate(-121.67 -424.64)" style="fill:#0a2540"/></svg>